<svg width="133" height="31" viewBox="0 0 133 31" fill="none" xmlns="http://www.w3.org/2000/svg">
<g clip-path="url(#clip0_3_736)">
<rect width="133" height="30" transform="translate(0 0.665039)" fill="#5865F2"/>
<path d="M33.7837 19.1706V11.7618H42.8186V14.1101H36.6722V15.0142H42.0964V17.1806H36.6722V19.1706H33.7837ZM48.3916 11.5689C51.1809 11.5689 53.4465 12.3847 53.4465 15.1851V15.7253C53.4576 18.5256 51.1754 19.3359 48.3916 19.3414C45.6023 19.3359 43.3202 18.5256 43.3312 15.7253V15.1851C43.3202 12.3792 45.6023 11.5744 48.3916 11.5689ZM50.558 15.5434V15.3615C50.5746 14.1542 49.5713 13.9337 48.3916 13.9172C47.2065 13.9337 46.2032 14.1542 46.2197 15.3615V15.5434C46.2032 16.7561 47.2065 16.9766 48.3916 16.9931C49.5713 16.9766 50.5746 16.7561 50.558 15.5434ZM54.312 11.7508H57.2005V16.8112H62.9831V19.1595H54.312V11.7508ZM63.9698 11.7508H66.8583V16.8112H72.6409V19.1595H63.9698V11.7508ZM77.9273 11.5689C80.7166 11.5689 82.9822 12.3847 82.9822 15.1851V15.7253C82.9932 18.5256 80.7111 19.3359 77.9273 19.3414C75.138 19.3359 72.8558 18.5256 72.8669 15.7253V15.1851C72.8558 12.3792 75.138 11.5744 77.9273 11.5689ZM80.0937 15.5434V15.3615C80.1102 14.1542 79.1069 13.9337 77.9273 13.9172C76.7421 13.9337 75.7388 14.1542 75.7554 15.3615V15.5434C75.7388 16.7561 76.7421 16.9766 77.9273 16.9931C79.1069 16.9766 80.1102 16.7561 80.0937 15.5434ZM94.2441 16.4529L95.964 11.7618H99.2163L95.964 19.1706H92.5297L90.9036 15.4662L89.2774 19.1706H85.8431L82.5908 11.7618H85.8431L87.5575 16.4529L89.2774 11.7618H92.5297L94.2441 16.4529Z" fill="#F1F1F1"/>
<path d="M127.475 8.40097L123.701 -0.00488281H133.822V40.9951H129.019L130.563 27.9575L125.931 21.0955L127.475 8.40097Z" fill="#080808"/>
<path d="M5.19022 3.42608V-0.00488281H-0.299316V40.9951H6.21951L5.19022 31.2169L8.79273 21.0955H3.81784L2.44545 11.6604L5.19022 3.42608Z" fill="#080808"/>
</g>
<defs>
<clipPath id="clip0_3_736">
<rect width="133" height="30" fill="white" transform="translate(0 0.665039)"/>
</clipPath>
</defs>
</svg>
