<svg width="81" height="103" viewBox="0 0 81 103" fill="none" xmlns="http://www.w3.org/2000/svg">
<g filter="url(#filter0_d_278_1239)">
<path d="M23.1984 81.4596C24.3271 81.2955 25.4023 81.3373 26.417 82.0218C26.5455 81.6763 26.6735 81.3473 26.7862 81.0129C26.8003 80.9711 26.7502 80.8803 26.7042 80.8488C25.1935 79.8022 23.5701 79.1036 21.6807 79.3071C20.5561 79.4281 19.5936 79.9249 18.8056 80.7245C18.4061 81.1302 18.0709 81.5992 17.7117 82.0438C17.6524 82.1171 17.6226 82.1805 17.5016 82.1341C15.5969 81.4049 13.6905 80.6819 11.8417 79.8151C11.4597 79.6356 11.3296 79.4252 11.3321 78.9963C11.342 77.2138 11.2198 75.4379 10.757 73.7068C10.6264 73.2183 10.4234 72.7443 10.2088 72.2848C10.0952 72.0416 9.91294 71.812 9.71239 71.6314C9.30841 71.2676 9.13024 70.8201 9.10953 70.296C9.07224 69.3554 9.34943 68.4803 9.72607 67.6404C10.0439 66.9311 10.4238 66.2495 10.7768 65.5559C10.8013 65.5078 10.8295 65.4614 10.8821 65.3678C10.7731 65.3988 10.7064 65.4154 10.6409 65.437C10.176 65.5886 9.70245 65.6802 9.21643 65.5725C8.58497 65.4328 8.21248 64.9663 8.11345 64.2333C7.9937 63.3458 8.16648 62.4877 8.3836 61.637C8.74242 60.2303 9.29225 58.8924 9.86239 57.5616C9.91211 57.446 9.92537 57.2939 9.89968 57.17C9.51807 55.3258 9.17789 53.4753 9.03992 51.5938C8.80126 48.3395 9.20855 45.1951 10.6418 42.2263C11.5256 40.3962 12.7048 38.7728 14.1003 37.3027C16.3676 34.9144 19.0218 33.0321 21.8501 31.3772C21.8738 31.3635 21.8986 31.3523 21.9438 31.3291C22.1236 31.6892 22.3096 32.0414 22.4721 32.4039C22.5036 32.4748 22.465 32.5983 22.4219 32.6774C22.1957 33.0938 22.2806 33.4108 22.6109 33.7621C23.21 34.3998 23.7536 35.0901 24.3093 35.7676C24.3938 35.8707 24.4481 36.0191 24.4655 36.1529C24.5156 36.5353 24.5322 36.9223 24.5798 37.3056C24.5889 37.3798 24.6635 37.4792 24.7323 37.5074C26.5073 38.2275 28.2853 38.9394 30.0628 39.6524C30.0806 39.6595 30.1009 39.6607 30.1685 39.674C30.0964 39.6081 30.0578 39.5708 30.0168 39.536C28.8148 38.5213 27.6136 37.5049 26.4079 36.4947C26.2898 36.3957 26.2297 36.2938 26.2538 36.1421C26.3532 35.5094 26.1647 34.9695 25.7408 34.4968C25.6082 34.3489 25.5274 34.1541 25.3919 34.0099C25.0315 33.6267 24.9768 33.1788 25.0124 32.677C25.0737 31.8247 25.0932 30.9691 25.1276 30.1151C25.1321 30.007 25.1429 29.927 25.2622 29.869C27.4773 28.79 29.7409 27.8428 32.1229 27.1824C33.3287 26.848 34.529 26.8563 35.7501 27.0017C38.0232 27.2727 40.2486 27.7534 42.4185 28.4834C45.9475 29.6705 49.164 31.4145 51.9753 33.8736C54.3818 35.9785 56.3073 38.4624 57.7678 41.304C58.6553 43.0302 59.4041 44.8131 59.8578 46.7083C60.3583 48.7995 60.4967 50.9163 60.3086 53.0572C60.1955 54.3454 59.9676 55.6112 59.5934 56.8501C59.5706 56.9251 59.6025 57.037 59.6465 57.1091C60.3666 58.2978 60.9968 59.528 61.3925 60.8664C61.5649 61.4502 61.6929 62.0452 61.6419 62.6592C61.5458 63.8198 60.9214 64.4591 59.7633 64.6016C59.697 64.6099 59.6311 64.6224 59.5632 64.6336C59.6647 65.2675 59.7757 65.8836 59.8598 66.5039C60.0363 67.8053 60.1495 69.1097 59.927 70.419C59.7517 71.4503 59.3378 72.3461 58.5182 73.0368C58.0649 73.4189 57.8855 73.9629 57.772 74.5256C57.5826 75.464 57.6294 76.4067 57.7537 77.3468C57.8184 77.8378 57.912 78.3251 57.9961 78.8389C57.6837 78.9913 57.3572 79.1513 57.0303 79.3108C55.513 80.0512 53.9948 80.7892 52.4804 81.5354C52.3391 81.605 52.2596 81.588 52.1444 81.4849C51.0986 80.5501 49.9297 79.8217 48.5765 79.4185C46.4662 78.7904 44.6145 79.269 43.0089 80.749C42.0216 81.6589 41.3035 82.7672 40.694 83.9523C40.6824 83.9751 40.6766 84.0007 40.6493 84.0786C40.8825 83.9249 41.0707 83.794 41.265 83.6734C42.249 83.0639 43.2232 82.437 44.2242 81.8569C44.7807 81.5346 45.3985 81.3423 46.0535 81.3179C46.3784 81.3054 46.6962 81.3407 47.0073 81.4749C46.5151 82.384 46.184 83.337 45.9955 84.3397C45.7486 85.6544 45.7755 86.96 46.126 88.2548C46.1517 88.3497 46.1907 88.4313 46.0896 88.5324C44.356 90.2677 42.4923 91.836 40.3398 93.0338C38.994 93.7825 37.5786 94.3386 36.0501 94.5967C34.4196 94.8718 32.8667 94.6203 31.3572 93.9893C29.6108 93.2592 28.0578 92.2163 26.5869 91.0412C25.4263 90.114 24.337 89.1083 23.3144 88.0306C23.22 87.9308 23.191 87.8471 23.2253 87.705C23.5626 86.3132 23.7872 84.9069 23.7288 83.4671C23.6989 82.7312 23.5833 82.2763 23.198 81.4608L23.1984 81.4596ZM31.0208 65.3421C30.9367 65.2737 30.8932 65.2402 30.8513 65.2041C29.4612 64.0038 28.0193 62.8701 26.4779 61.8682C24.8599 60.8158 23.1698 59.9071 21.309 59.3548C19.8634 58.926 18.3958 58.7321 16.9004 59.0548C15.1776 59.4265 13.8384 60.36 12.8954 61.8533C12.8502 61.9246 12.8166 62.0029 12.764 62.1048C13.5679 62.0588 14.329 62.0157 15.1183 61.9706C15.0719 62.1036 15.0326 62.2117 14.9961 62.3211C14.6447 63.3781 14.3551 64.4479 14.3696 65.5745C14.3874 66.9746 14.9654 68.0718 16.1952 68.7683C16.6771 69.0413 17.1983 69.2584 17.7233 69.4374C18.8167 69.8103 19.9599 69.9657 21.0989 70.1364C22.736 70.3817 24.3134 70.1982 25.8374 69.5464C27.2523 68.9411 28.4771 68.0573 29.5552 66.9717C30.0636 66.46 30.5232 65.8994 31.0212 65.3425L31.0208 65.3421ZM56.0471 62.1048C55.9982 62.0145 55.9654 61.9482 55.9277 61.8852C55.4438 61.0785 54.8028 60.4209 54.0118 59.9154C52.4336 58.9061 50.7049 58.73 48.8996 59.0287C47.2837 59.2964 45.7884 59.9076 44.3506 60.6712C42.3804 61.717 40.5846 63.0184 38.868 64.4343C38.5183 64.7226 38.1748 65.0185 37.8264 65.3131C37.8682 65.374 37.8935 65.415 37.9221 65.4531C38.9977 66.8797 40.2846 68.0743 41.8314 68.9754C43.2783 69.8186 44.832 70.3274 46.5188 70.2263C47.5402 70.165 48.5566 69.9869 49.5684 69.8199C50.5156 69.6637 51.4342 69.3914 52.296 68.9531C53.8088 68.1836 54.5045 66.9481 54.4282 65.2567C54.3806 64.2043 54.1079 63.2049 53.7715 62.2171C53.7466 62.1438 53.7251 62.0692 53.694 61.9706C54.4937 62.0162 55.2544 62.0597 56.0466 62.1052L56.0471 62.1048ZM37.8031 82.3094C37.8694 82.1971 37.9192 82.1151 37.9668 82.0322C38.5697 80.9872 39.1692 79.9402 39.7783 78.8989C39.8657 78.749 39.8844 78.6213 39.8289 78.4552C38.8108 75.404 37.7986 72.3507 36.7835 69.2986C36.6256 68.8238 36.4578 68.3527 36.2949 67.8812C36.0525 68.1086 35.8404 68.3456 35.5918 68.5342C35.0387 68.9543 34.4677 68.9162 33.9647 68.4385C33.7931 68.2756 33.6531 68.0796 33.489 67.8874C33.4716 67.928 33.4542 67.9632 33.4414 67.9997C32.2257 71.3761 31.0096 74.7522 29.8005 78.1312C29.7728 78.2082 29.8005 78.335 29.8503 78.4051C30.5377 79.3804 31.2333 80.35 31.9269 81.3212C32.1262 81.6 32.3255 81.8793 32.5306 82.1664C33.6871 81.5574 34.5427 80.7154 34.887 79.4177C35.349 80.9093 36.4951 81.6717 37.804 82.3094H37.8031Z" stroke="#F1AE35" stroke-width="2.10062"/>
<path d="M60.3134 35.3407C55.9446 29.4883 48.2581 25.3462 44.9609 24.0067L51.5553 10.715L53.513 20.5035L61.962 16.8972L60.9316 25.9644L70.9262 25.0371L60.3134 35.3407Z" stroke="#F1AE35" stroke-width="2.06073"/>
</g>
<defs>
<filter id="filter0_d_278_1239" x="0.430071" y="0.958895" width="79.9045" height="101.393" filterUnits="userSpaceOnUse" color-interpolation-filters="sRGB">
<feFlood flood-opacity="0" result="BackgroundImageFix"/>
<feColorMatrix in="SourceAlpha" type="matrix" values="0 0 0 0 0 0 0 0 0 0 0 0 0 0 0 0 0 0 127 0" result="hardAlpha"/>
<feOffset/>
<feGaussianBlur stdDeviation="3.29717"/>
<feColorMatrix type="matrix" values="0 0 0 0 0.945098 0 0 0 0 0.682353 0 0 0 0 0.207843 0 0 0 0.53 0"/>
<feBlend mode="normal" in2="BackgroundImageFix" result="effect1_dropShadow_278_1239"/>
<feBlend mode="normal" in="SourceGraphic" in2="effect1_dropShadow_278_1239" result="shape"/>
</filter>
</defs>
</svg>
