<svg width="119" height="44" viewBox="0 0 119 44" fill="none" xmlns="http://www.w3.org/2000/svg">
<g clip-path="url(#clip0_3_851)">
<path d="M35.3627 23.2913C35.274 23.4526 35.265 23.7268 35.3403 23.8971C35.5895 24.4626 36.0385 24.6749 36.7107 24.5307C37.2028 24.4249 37.6877 24.2618 38.1573 24.0763C39.4578 23.5619 40.8004 23.2124 42.1959 23.1434C45.0891 23 47.9859 22.9068 50.88 22.7733C53.6845 22.6433 56.4889 22.5008 59.2925 22.3395C60.1242 22.292 60.9569 22.0572 61.7797 22.0958C62.6302 22.1352 63.2487 21.7866 63.8465 21.3045C64.2301 20.9971 64.5716 20.6368 64.948 20.3205C65.1855 20.1206 65.216 19.9127 65.0762 19.6528C64.8019 19.1402 64.5456 18.6187 64.2552 18.115C63.6242 17.0217 62.9762 15.9382 62.3031 14.7956C62.4581 14.8243 62.5684 14.8377 62.675 14.8655C63.2522 15.0116 63.8294 15.163 64.4066 15.31C67.0363 15.9803 69.6696 16.1739 72.3262 15.4364C74.2039 14.9148 75.1217 13.5177 74.8134 11.5828C74.7909 11.4448 74.7829 11.3041 74.7685 11.1643C74.808 11.1401 74.8465 11.1159 74.8859 11.0909C77.6339 13.7327 80.3828 16.3738 83.1837 19.0649C82.9955 19.1214 82.8879 19.1716 82.7768 19.185C80.5029 19.4467 78.2219 19.5713 75.9364 19.4413C74.2012 19.3428 72.4956 19.0703 70.9118 18.2871C70.8088 18.2369 70.6797 18.1983 70.5686 18.2091C69.3711 18.3319 68.2472 18.6375 67.4119 19.5856C66.9861 20.0686 67.074 20.402 67.7166 20.5221C69.4751 20.8501 71.2336 21.2883 73.0091 21.3914C75.2525 21.5213 77.5165 21.4398 79.7635 21.3098C81.9621 21.1817 84.0522 20.5633 85.9407 19.3831C86.9149 18.7737 87.1748 18.4242 86.1145 17.3927C84.5308 15.8522 82.8897 14.369 81.3374 12.798C79.6999 11.1419 78.1314 9.41771 76.5503 7.70782C76.2501 7.38341 75.9489 7.3144 75.5537 7.45331C74.7318 7.74277 74.0049 8.17024 73.5218 8.91496C73.3417 9.19367 73.1794 9.20532 72.95 9.01981C72.8335 8.92661 72.7205 8.82893 72.6103 8.72856C70.8643 7.11994 69.1372 5.4916 67.3653 3.91166C66.5989 3.22878 65.7609 2.61939 64.9148 2.03598C64.6352 1.84331 64.1449 1.66138 63.8931 1.77878C63.1599 2.12201 62.4877 2.60415 61.8128 3.06299C61.5179 3.26283 61.5439 3.54513 61.8047 3.77992C62.1041 4.04877 62.3954 4.33286 62.7252 4.56048C64.8216 6.0069 66.6984 7.71678 68.5815 9.4186C69.8264 10.5433 70.9836 11.7486 71.8538 13.1951C71.9748 13.3958 72.0896 13.7193 72.0062 13.886C71.9354 14.0276 71.5769 14.0383 71.3412 14.0796C71.2121 14.1029 71.0732 14.076 70.9396 14.0625C67.0408 13.6655 63.4423 12.393 60.135 10.3067C59.7729 10.0791 59.4861 9.70896 59.219 9.36215C58.9026 8.94991 58.674 8.47046 58.355 8.06091C58.0153 7.62537 57.5591 7.46944 57.1728 7.68273C56.6404 7.97578 56.1277 8.31811 55.6554 8.69898C55.3238 8.96694 55.1821 9.38007 55.4286 9.78514C55.5801 10.0352 55.5317 10.2126 55.4053 10.4331C55.0916 10.9851 55.1463 11.1375 55.5299 11.6268C56.1627 12.436 56.7668 13.2676 57.352 14.1118C57.4954 14.3188 57.5196 14.6092 57.5994 14.861C57.5456 14.8951 57.4927 14.93 57.439 14.9641C57.2812 14.8521 57.1127 14.7517 56.9675 14.6253C56.5624 14.274 56.2048 13.8519 55.7602 13.5634C53.5446 12.1268 51.3255 10.693 49.0677 9.32182C47.7063 8.49466 46.2794 7.77503 44.8678 7.03301C44.6464 6.91651 44.3372 6.86811 44.0925 6.91292C42.9748 7.11814 42.1395 7.76249 41.5282 8.70257C41.3481 8.97769 41.4341 9.21517 41.6627 9.45983C41.8688 9.68118 42.0624 9.9563 42.1458 10.2413C42.3089 10.796 42.4236 11.3705 42.4998 11.9449C42.6297 12.9199 42.5482 12.9827 41.608 12.5731C40.536 12.1071 39.4112 11.9108 38.2604 11.84C37.6769 11.8042 37.0889 11.8338 36.363 11.8338C36.6157 11.5309 36.7743 11.3248 36.9491 11.133C37.8087 10.1857 38.3778 9.0924 38.6969 7.8521C39.3637 5.25949 37.4062 3.56932 35.3278 3.598C32.6264 3.63474 30.3409 4.60888 28.4246 6.51323C27.6959 7.23733 27.3831 7.99908 27.7667 8.9983C27.877 9.28508 27.8761 9.61397 27.9254 9.92404C27.8788 9.94913 27.8331 9.97333 27.7865 9.99842C27.5642 9.83622 27.3356 9.68208 27.1223 9.51001C26.3425 8.88359 25.5924 8.21864 24.7866 7.62896C23.427 6.63153 21.8728 6.29367 20.2102 6.46394C18.7493 6.6136 17.5411 7.34039 16.3688 8.16487C15.6472 8.67299 15.2009 9.35856 14.941 10.1669C14.6407 11.0989 14.6246 12.03 15.2878 12.8393C15.4214 13.0024 15.7163 13.1959 15.8633 13.1484C16.0766 13.0803 16.3015 12.8312 16.3777 12.6107C16.4862 12.2953 16.4673 11.935 16.4969 11.5936C16.5355 11.1482 16.5077 10.6858 16.6242 10.2628C16.7075 9.96347 16.9227 9.59963 17.1826 9.46879C17.9579 9.07806 18.8004 8.86656 19.685 8.89076C21.1423 8.9293 22.3962 9.53242 23.5999 10.2825C25.6381 11.5515 26.6204 13.3994 26.4376 15.7778C26.2816 17.8031 25.5511 19.5471 23.4386 20.2954C22.018 20.7981 20.6252 20.8062 19.3713 19.8016C18.9429 19.4584 18.9231 19.1967 19.1499 18.7154C19.3103 18.374 19.4018 17.9869 19.4484 17.6105C19.4932 17.2547 18.6919 16.4374 18.3881 16.5655C17.8727 16.7833 17.5886 16.4535 17.2453 16.2537C14.6031 14.7132 11.7359 14.093 8.70377 14.2014C7.85141 14.2319 6.96588 14.1781 6.17178 14.6271C5.94592 14.7553 5.82044 14.6271 5.82582 14.4022C5.83567 13.9711 5.82761 13.532 5.90558 13.1117C6.34297 10.727 6.65756 8.33962 6.38599 5.90563C6.18253 4.0891 5.82492 2.31917 5.15988 0.608389C4.8659 -0.150665 4.38639 -0.0915176 3.8549 0.205114C3.61649 0.337746 3.41662 0.561788 3.24543 0.781349C3.16386 0.8862 3.1307 1.09859 3.1791 1.22316C3.96872 3.25208 4.45361 5.34821 4.63735 7.51694C4.83812 9.88103 4.74669 12.2254 4.2385 14.5501C4.10317 15.1702 3.7823 15.6228 3.28038 16.0009C2.6261 16.4938 1.96644 16.993 1.38116 17.563C0.00627167 18.9054 -0.257234 20.5642 0.21869 22.3548C0.543143 23.5762 1.61151 23.8657 2.56784 23.0457C2.67001 22.9588 2.76592 22.8638 2.86003 22.7679C4.37832 21.2256 5.09804 19.3168 5.43504 17.2233C5.4682 17.0208 5.61877 16.7761 5.78817 16.6704C6.05885 16.501 6.38868 16.3496 6.69879 16.3361C7.64974 16.2958 8.60966 16.2483 9.55255 16.3415C11.2662 16.5109 12.9423 16.8801 14.4937 17.6741C15.2305 18.0514 15.9152 18.5057 16.3947 19.2003C16.4915 19.341 16.574 19.5704 16.5292 19.7191C16.0981 21.1584 16.8142 22.5716 18.4929 23.1273C20.2416 23.7071 21.9176 23.4158 23.4045 22.396C25.2043 21.1611 26.5415 19.4727 27.6341 17.5961C28.4452 16.2026 28.9364 14.7194 28.7688 13.0741C28.7518 12.9083 28.7885 12.7371 28.8091 12.4396C29.0108 12.6314 29.1524 12.7183 29.225 12.8446C29.4697 13.2694 29.7036 13.7023 29.9142 14.145C30.0962 14.5268 30.1132 14.9148 29.8604 15.2921C29.6391 15.6228 29.7619 15.914 30.0021 16.182C30.2216 16.4248 30.4403 16.6551 30.8535 16.3155C31.2291 17.0109 31.5876 17.6589 31.9246 18.3175C31.9694 18.4054 31.9022 18.5496 31.8869 18.6679C31.7489 18.6393 31.593 18.642 31.4791 18.5729C31.3895 18.5192 31.3528 18.3785 31.2945 18.2754C31.1188 17.968 30.8571 17.8497 30.5407 18.0182C29.6839 18.4753 28.9543 19.0811 28.4972 19.9584C28.3251 20.2873 28.3861 20.6019 28.7034 20.8277C29.5826 21.4532 30.4852 22.0465 31.5688 22.2463C32.7554 22.465 33.9484 22.6541 35.1422 22.8342C35.4945 22.8871 35.533 22.9821 35.3627 23.2913ZM2.99268 20.2828C2.87526 20.6422 2.6494 20.6216 2.4092 20.2963C1.88039 19.5811 2.00587 18.6249 2.70228 18.0729C2.94696 17.8784 3.19523 17.6884 3.44619 17.5029C3.50266 17.4626 3.58063 17.4509 3.81187 17.3667C3.52327 18.4143 3.29203 19.3598 2.99268 20.2828ZM45.1286 17.8193C45.2003 17.7099 45.3535 17.6042 45.4799 17.5899C46.4076 17.4841 47.0332 16.8523 47.5485 16.2115C47.8371 15.8522 47.8559 15.1908 47.8183 14.6773C47.7762 14.0975 47.544 13.5284 47.3782 12.9603C47.285 12.6394 47.1595 12.3285 47.0484 12.013C47.0798 11.9834 47.112 11.9539 47.1434 11.9243C47.2967 11.9852 47.4544 12.0354 47.6014 12.108C50.4319 13.5096 53.0517 15.2535 55.6357 17.0548C56.419 17.6006 57.2248 18.1159 57.9911 18.685C58.4787 19.0479 58.9241 19.4718 59.3642 19.893C59.5148 20.0355 59.5927 20.2542 59.7729 20.5526C57.6801 20.6395 55.7432 20.7542 53.8046 20.791C50.5349 20.8519 47.2635 20.8573 43.993 20.903C43.5502 20.9093 43.1101 21.0284 42.6674 21.0777C42.4541 21.101 42.2372 21.0813 42.0221 21.0813C41.9961 21.0338 41.9692 20.9863 41.9432 20.9388C42.1108 20.7551 42.2452 20.506 42.4523 20.3975C43.5995 19.7953 44.4304 18.8821 45.1286 17.8193ZM32.9096 12.5391C32.7142 12.3652 32.5726 12.1232 32.4346 11.8938C31.6996 10.667 30.9638 9.44011 30.2467 8.20251C29.8219 7.46765 30.0164 6.75788 30.8006 6.4263C31.4074 6.17 32.0769 6.06067 32.7178 5.88591C34.3248 5.91638 35.4837 6.58761 35.8772 7.83956C36.5108 9.84787 35.2991 11.8983 33.4402 12.6851C33.304 12.7434 33.036 12.6511 32.9096 12.5391ZM33.926 19.6905C33.6965 19.556 33.632 19.3454 33.8023 19.1241C33.9645 18.9126 34.1599 18.7271 34.3365 18.5263C34.5426 18.2933 34.7622 18.0684 34.945 17.8175C35.2516 17.3963 35.2247 16.9778 34.937 16.5342C34.6627 16.1121 34.4144 15.6649 34.2191 15.2016C34.0389 14.775 34.1456 14.5787 34.6 14.49C35.2704 14.3601 35.9534 14.2902 36.63 14.1943C38.0256 14.2758 39.3682 14.5214 40.6517 15.0546C41.5829 15.4417 42.2246 16.1148 42.5706 17.0638C42.9112 17.9967 42.6844 18.8015 41.8966 19.4136C40.7278 20.3214 39.3709 20.6413 37.9341 20.4997C36.7681 20.385 35.6155 20.1233 34.4593 19.9127C34.2737 19.8787 34.0918 19.7873 33.926 19.6905Z" fill="#02D0CE"/>
<path d="M118.695 19.2237C118.615 18.9074 118.467 18.5668 118.244 18.3365C117.699 17.7719 117.111 17.2459 116.511 16.7395C115.496 15.8837 114.676 14.8397 113.732 13.9229C112.056 12.2963 110.291 10.7594 108.558 9.19113C106.858 7.65152 105.095 6.18987 103.164 4.9433C102.973 4.81963 102.717 4.6628 102.523 4.69685C101.37 4.90387 100.373 5.44067 99.5417 6.16029C99.8931 6.77058 100.262 7.30022 100.52 7.88004C101.092 9.1741 101.386 10.5461 101.403 11.9621C101.408 12.3627 101.361 12.8484 101.141 13.1531C100.488 14.0537 99.7514 14.8961 99.012 15.7296C98.8955 15.8622 98.5603 15.9303 98.3873 15.8658C95.5972 14.8217 93.7195 12.7883 92.3849 10.2074C92.0273 9.51554 91.8714 8.74484 91.9726 7.94815C92.0443 7.38715 92.35 7.02151 92.885 6.84676C93.6415 6.59942 94.259 6.86199 94.804 7.37818C95.0083 7.57176 95.1768 7.86122 95.4197 7.94904C96.3554 8.28959 97.3216 8.28152 98.2717 7.98758C98.5872 7.8899 98.6876 7.62911 98.5872 7.30111C97.9625 5.27309 95.9629 4.23085 93.9615 4.90476C92.4835 5.40214 91.0674 6.02139 89.8691 7.05556C88.6958 8.06734 88.3463 9.31659 88.867 10.7612C89.1171 11.4548 89.4424 12.1404 89.844 12.7579C90.941 14.4445 92.4082 15.7824 94.0538 16.9197C95.4493 17.884 96.9945 18.1089 98.5719 17.5022C99.4933 17.1482 100.339 16.5926 101.211 16.1122C101.449 15.9814 101.664 15.778 101.94 15.9814C102.29 16.2377 102.593 16.1328 102.933 15.9464C103.478 15.6471 104.028 15.3388 104.611 15.1309C105.04 14.9777 105.151 14.7743 105.11 14.3432C105.013 13.3198 104.96 12.2919 104.904 11.2658C104.893 11.0516 104.952 10.8338 104.994 10.4861C105.438 10.7881 105.776 11.0005 106.096 11.2371C108.822 13.2535 111.162 15.6883 113.555 18.0668C113.681 18.1922 113.794 18.3347 113.893 18.4835C114.117 18.8195 114.077 18.9567 113.668 19.0176C112.739 19.1556 111.806 19.2667 110.872 19.368C109.047 19.5652 107.197 19.6216 105.399 19.9604C100.71 20.8431 96.0238 21.7258 91.3936 22.9132C87.6436 23.8757 83.9608 25.0103 80.3631 26.4173C76.7538 27.8278 73.1732 29.3128 69.5898 30.7896C69.1919 30.9536 68.9983 30.8694 68.7859 30.5423C68.361 29.8836 67.7094 29.5951 66.9566 29.4893C65.8963 29.3414 64.879 29.5476 63.8913 29.8935C63.3374 30.0871 62.7665 30.2511 62.3497 30.7448C61.6945 31.52 61.3396 32.3956 61.3477 33.3975C61.3521 34.0015 61.4355 34.6082 61.5188 35.2078C61.5421 35.378 61.6506 35.5904 61.7877 35.6809C62.3918 36.0824 63.0479 36.1837 63.747 35.9256C63.8545 35.8853 63.9899 35.9086 64.11 35.922C64.6388 35.9811 65.1649 36.0528 65.6946 36.1048C65.786 36.1147 65.9115 36.0761 65.9778 36.0134C66.5828 35.4336 67.3698 35.2893 68.0993 35.4417C69.2215 35.6756 70.3069 36.0967 71.3976 36.4678C72.2464 36.7554 72.8595 37.3039 73.2691 38.1275C73.7378 39.0675 73.2709 39.9538 72.2366 39.9852C70.6941 40.0318 69.2457 39.6276 67.7964 39.1518C66.8696 38.848 65.8954 38.6903 64.9453 38.4528C64.2489 38.278 63.7067 38.5773 63.1716 38.9591C62.9224 39.1365 62.8919 39.3624 63.1097 39.5022C63.5409 39.78 63.9953 40.0551 64.4793 40.2093C65.3083 40.4727 66.167 40.6475 67.0157 40.8527C68.2329 41.1484 69.4384 41.5607 70.6734 41.6933C71.8117 41.8152 72.9841 41.6584 74.1385 41.5768C74.8976 41.523 75.4569 41.126 75.7607 40.4037C76.2017 39.3525 76.3299 38.3183 75.6738 37.2913C74.9971 36.233 74.0327 35.5304 72.8926 35.0805C71.7597 34.6333 70.6 34.2542 69.4455 33.8671C69.1516 33.7685 68.9956 33.5821 69.0395 33.3141C69.1112 32.8723 69.1354 32.3606 69.7682 32.2943C69.8614 32.2845 69.9439 32.1859 70.0353 32.1375C70.9289 31.6679 71.8001 31.1481 72.7223 30.7439C74.393 30.0127 76.0932 29.3522 77.7818 28.6613C78.4702 28.3799 79.1531 28.085 79.8487 27.8215C80.8068 27.4577 81.7703 27.1055 82.7383 26.7694C83.7753 26.4083 84.8105 26.0355 85.8654 25.7308C87.2932 25.3186 88.7389 24.9655 90.1774 24.59C91.3685 24.2781 92.5534 23.9411 93.7526 23.6678C95.4036 23.2905 97.0626 22.9464 98.7243 22.6184C100.125 22.3424 101.528 22.0717 102.94 21.8647C104.661 21.6138 106.388 21.3548 108.122 21.2392C110.278 21.0958 112.445 21.0976 114.607 21.0313C115.055 21.0178 115.528 21.0653 115.942 20.9345C116.727 20.6872 117.466 20.2884 118.25 20.0374C118.726 19.8851 118.785 19.5777 118.695 19.2237ZM65.4598 33.7452C64.991 33.9083 64.4981 33.9997 64.0159 34.1243C63.9684 34.0866 63.92 34.049 63.8725 34.0114C63.9863 33.5498 64.0598 33.0731 64.2256 32.6304C64.4246 32.0998 64.7625 31.6544 65.2384 31.3121C65.6265 31.0334 66.1436 31.1194 66.3462 31.5487C66.7531 32.409 66.3543 33.4342 65.4598 33.7452Z" fill="#02D0CE"/>
<path d="M48.2494 35.4587C47.562 34.6199 46.6782 34.0723 45.6036 33.8536C45.2782 33.7864 45.1761 33.6852 45.3338 33.3034C45.833 32.0945 45.8886 30.7959 45.2567 29.673C44.304 27.9784 42.8888 26.8241 40.2232 26.8599C38.2496 26.8142 36.1371 27.8646 34.2038 29.3755C33.8516 29.6506 33.7566 30.2358 34.0631 30.4357C34.7219 30.8658 35.1171 31.4116 35.1476 32.2065C35.1494 32.262 35.2014 32.3131 35.2175 32.3705C35.2973 32.6492 35.2704 32.8858 35.0158 33.0856C34.652 33.3706 34.2701 33.6484 33.9708 33.9943C33.5558 34.4738 33.0216 34.9676 32.8854 35.5384C32.7339 36.1738 32.8002 36.9813 33.0754 37.5736C33.5854 38.675 34.5148 39.4959 35.5124 40.1824C36.1201 40.6009 36.7815 40.962 37.4618 41.2461C38.039 41.4881 38.6682 41.6548 39.2893 41.7283C40.6767 41.8931 42.0032 41.4863 43.2329 40.9432C44.8731 40.2182 46.4739 39.3848 47.8766 38.2251C48.6285 37.6023 48.8678 36.2141 48.2494 35.4587ZM38.8456 28.9866C39.2947 28.629 39.6622 28.2042 40.3191 28.4085C40.9806 28.6137 41.582 28.8772 42.0176 29.4651C42.4388 30.0324 42.8628 30.5988 42.9121 31.3175C42.9479 31.8364 42.9336 32.3839 42.8036 32.8831C42.6728 33.3849 42.5975 33.3652 42.1341 33.3688C41.5399 33.4244 41.0245 33.4701 40.5091 33.5203C39.4901 33.6188 38.8654 32.996 38.3509 32.2683C37.6321 31.2503 38.0327 29.6345 38.8456 28.9866ZM45.5928 37.734C44.4295 38.7655 43.1012 39.5049 41.6223 39.978C41.4018 40.0488 41.1831 40.1268 40.9761 40.1976C39.6613 39.892 38.3787 39.6187 37.4636 38.5675C37.0253 38.0638 36.5727 37.5557 36.2411 36.983C36.0331 36.6246 35.9596 36.1416 35.9659 35.7159C35.9758 35.102 36.3656 34.7373 36.9733 34.6432C37.0782 34.627 37.2637 34.7005 37.3049 34.7848C37.5487 35.2812 37.9987 35.3278 38.445 35.3C39.5295 35.2301 40.6149 35.1423 41.6949 35.0195C42.5652 34.921 43.3889 34.9479 44.2466 35.2275C44.7969 35.4076 45.2496 35.6397 45.6421 36.034C46.2391 36.6344 46.2202 37.1784 45.5928 37.734Z" fill="#02D0CE"/>
<path d="M58.7583 35.6271C57.1181 34.5956 55.3381 33.8653 53.3125 34.0472C53.1189 34.0642 52.8052 33.9334 52.7245 33.7792C52.5274 33.402 52.4332 32.97 52.2961 32.5551C52.5668 32.4852 52.7416 32.4574 52.902 32.3956C53.593 32.1285 54.2742 31.8355 54.9706 31.5827C55.8364 31.2691 56.7121 30.9841 57.5851 30.6919C57.8369 30.6077 58.0933 30.5351 58.3496 30.467C58.9618 30.3039 59.5757 30.1471 60.1879 29.9876C60.5347 29.897 60.7086 29.7008 60.6925 29.3136C60.6745 28.8951 60.4836 28.5949 60.1018 28.5232C59.7657 28.4596 59.3848 28.473 59.0559 28.5653C58.0861 28.8378 57.1351 29.1747 56.1725 29.4705C55.5344 29.6667 54.8873 29.8307 54.2464 30.0189C53.8619 30.1318 53.4711 30.2358 53.1037 30.3917C52.5829 30.6122 52.0909 30.6686 51.5782 30.3729C50.9338 30.001 49.6485 30.2331 49.2004 30.8165C49.0865 30.9653 49.0247 31.2099 49.0489 31.3963C49.0856 31.6858 49.1959 31.9717 49.3097 32.2441C49.6234 32.9969 49.973 33.7353 50.266 34.4953C50.3422 34.6942 50.3369 34.9873 50.2445 35.1764C49.9855 35.7078 49.9873 36.1989 50.292 36.6998C50.5313 37.0933 50.7617 37.4921 50.9992 37.8873C51.2457 38.2977 51.8076 38.6248 52.1178 38.5684C52.5274 38.4931 52.945 38.4599 53.3492 38.3667C53.4855 38.3354 53.6549 38.1991 53.7006 38.0719C53.9014 37.5163 53.8512 36.9795 53.5563 36.4453C53.4487 36.25 53.5016 35.9668 53.481 35.723C53.74 35.7087 54.017 35.6271 54.2536 35.6935C54.8084 35.8485 55.3506 36.0564 55.8848 36.276C57.2983 36.8585 58.4679 37.7331 59.1294 39.1553C59.7137 40.4118 59.5515 41.126 58.3854 41.8143C57.4775 42.3502 56.5481 42.6002 55.5057 42.4246C54.613 42.2749 53.783 41.9442 53.0194 41.4791C52.2773 41.0265 51.476 40.6367 51.0135 39.8239C50.8137 39.4726 50.5179 39.2889 50.0895 39.5891C49.713 39.8526 49.2927 40.0524 48.8938 40.2854C48.5326 40.4969 48.4807 40.7819 48.78 41.0803C49.7453 42.0401 50.8253 42.8458 52.1034 43.3404C52.5928 43.5295 53.1306 43.5905 53.6271 43.7634C54.8138 44.1784 55.9834 43.9678 57.1549 43.7177C57.266 43.6944 57.3709 43.6353 57.4739 43.5824C58.4204 43.0922 59.1123 42.3027 59.7998 41.5275C60.2802 40.9862 60.6378 40.3723 60.7005 39.5855C60.8386 37.8595 60.1655 36.5108 58.7601 35.6271H58.7583Z" fill="#02D0CE"/>
<path d="M81.0093 9.35512C81.3768 9.89909 81.7443 10.4431 82.1315 10.9727C83.8371 13.309 85.5517 15.639 87.2609 17.9727C87.6087 18.4476 88.0353 18.7586 88.5489 18.686C89.2605 18.6905 89.8171 18.5588 90.2688 18.134C90.6668 17.7594 90.7528 17.3301 90.5153 16.8399C90.4059 16.6132 90.2805 16.3864 90.1209 16.1938C87.9546 13.5877 85.9156 10.8894 84.1642 7.98219C84.0495 7.79131 83.9088 7.61387 83.7609 7.44718C83.4365 7.07796 83.0242 6.91486 82.5554 7.09499C82.1279 7.25899 81.6968 7.44449 81.3186 7.69811C80.5962 8.18293 80.5289 8.64088 81.0111 9.35422L81.0093 9.35512Z" fill="#02D0CE"/>
<path d="M77.5354 5.09833C78.0086 5.29369 78.5222 5.39317 79.0214 5.53118C80.0414 5.28563 80.9878 4.95494 81.7308 4.20843C81.9209 4.01755 81.9334 3.78365 81.721 3.57395C81.1689 3.02729 79.8809 2.78711 79.1935 3.11511C78.6441 3.37679 78.0857 3.62682 77.5649 3.9369C77.3642 4.05698 77.1482 4.32314 77.1356 4.53464C77.124 4.72015 77.3462 5.01946 77.5363 5.09833H77.5354Z" fill="#02D0CE"/>
</g>
<defs>
<clipPath id="clip0_3_851">
<rect width="118.73" height="44" fill="white"/>
</clipPath>
</defs>
</svg>
