<svg width="249" height="186" viewBox="0 0 249 186" fill="none" xmlns="http://www.w3.org/2000/svg">
<rect x="0.5" y="0.504333" width="248" height="185.461" rx="7.47754" fill="#191F3B"/>
<rect x="0.873877" y="0.87821" width="247.252" height="184.713" rx="7.10366" stroke="#02D0CE" stroke-opacity="0.1" stroke-width="0.747754"/>
<g clip-path="url(#clip0_278_2449)">
<path d="M193.961 98.0419C193.829 97.8714 193.584 97.8451 193.422 97.985C192.573 98.7074 189.852 100.958 186.564 100.968C183.273 100.976 184.248 96.6176 184.597 95.0004C185.166 92.3625 185.912 89.5441 185.912 89.5441L191.769 89.6131C192.381 89.6193 192.92 89.2601 193.147 88.6981L193.38 88.1198C193.458 87.9493 193.325 87.7505 193.139 87.7485L186.311 87.7302L188.427 78.5284C188.547 78.0434 188.064 77.5991 187.598 77.7675L185.357 78.5811C184.488 78.8956 183.634 79.6099 183.389 80.5128L181.651 87.7363L178.452 87.7424C178.192 87.7424 178.039 88.0203 178.184 88.2293L178.92 89.2926C179.034 89.457 179.224 89.5563 179.429 89.5563L181.328 89.5522L179.902 96.7048C179.902 96.7048 176.776 101.81 171.773 101.81C168.466 101.81 167.999 99.6225 167.999 99.6225C167.999 99.6225 170.341 98.5369 172.577 97.0801C174.492 95.8323 176.15 94.6311 176.67 92.454C177.179 90.3152 176.056 87.2736 171.077 87.2736C167.492 87.2736 164.301 89.7714 163.345 92.4762C161.895 96.5769 162.827 99.3669 162.827 99.3669C162.827 99.3669 161.608 99.994 159.681 100.83C157.908 101.599 156.555 102.076 156.555 102.076C156.555 102.076 158.745 100.939 159.966 95.6821C160.966 91.3724 159.256 87.6369 155.095 87.6369C154.008 87.6369 153.015 88.1665 153.015 88.1665C153.015 88.1665 155.239 85.7721 156.763 82.0752C158.001 79.0762 159.274 74.3951 154.06 74.3951C150.509 74.3951 148.239 78.1307 147.585 81.5598C147.541 81.7952 143.661 99.0645 143.661 99.0645C143.661 99.0645 142.189 101.221 140.713 101.221C138.72 101.221 139.704 98.5309 139.887 97.4981C140.218 95.6131 141.038 93.4562 141.26 91.9627C141.603 89.6537 139.656 87.5699 136.149 87.5739C133.091 87.578 131.565 89.388 131.565 89.388C131.565 89.388 131.28 87.7789 129.498 87.7789C127.715 87.7789 127.053 88.8644 126.995 89.11C126.612 90.717 125.341 95.1545 124.897 96.6967C124.757 97.1877 124.123 99.6409 124.123 99.6409C124.123 99.6409 122.621 101.199 121.394 101.199C119.257 101.199 120.384 97.3033 120.678 95.9763C121.18 93.7158 122.477 89.7937 122.798 88.9192C122.85 88.7792 122.824 88.625 122.73 88.5053C122.413 88.0975 121.607 87.4502 120.508 87.3102C119.754 87.2128 119.076 87.4542 118.643 87.8032C117.602 88.6433 117.213 90.5587 116.956 91.5003C116.221 94.201 114.979 99.3994 114.979 99.3994C114.979 99.3994 113.247 101.047 112.144 101.047C110.67 101.047 110.564 99.994 110.628 98.6384C110.68 97.5082 112.348 91.9547 112.944 90.0048C113.108 89.463 112.924 88.8665 112.465 88.5398C111.805 88.0711 111.089 87.7403 108.679 87.7403C102.446 87.7403 97.8744 91.2262 95.9151 94.7771C93.0738 99.925 94.2608 105.718 99.4766 105.718C103.451 105.718 105.932 101.621 105.932 101.621C105.932 101.621 105.655 105.554 109.228 105.541C111.791 105.533 114.773 102.102 114.773 102.102C114.773 102.102 115.402 105.586 118.474 105.578C121.416 105.568 124.218 101.956 124.218 101.956C124.218 101.956 124.059 102.81 125 104.074C125.768 105.105 126.718 105.558 127.456 105.574C127.747 105.58 127.997 105.389 128.054 105.117C128.441 103.23 130.031 97.1288 130.642 94.6127C131.368 91.6301 132.955 89.9379 134.591 89.9358C135.993 89.9338 136.797 91.0883 136.474 92.8515C136.277 93.927 134.443 99.8924 134.469 101.597C134.497 103.301 135.804 105.385 138.609 105.375C141.782 105.365 144.377 101.589 144.377 101.589C144.377 101.589 145.49 105.74 151.227 105.74C153.304 105.74 156.825 104.618 159.509 103.413C162.025 102.281 163.585 101.428 163.585 101.428C163.585 101.428 164.666 105.74 170.137 105.74C175.607 105.74 179.625 100.789 179.625 100.789C179.625 100.789 180.678 105.416 186.347 105.416C189.71 105.416 192.682 103.46 193.913 101.944C194.869 100.765 194.487 98.7238 193.965 98.052L193.961 98.0419ZM106.499 96.2077C105.47 99.4805 103.246 100.99 101.606 100.994C99.0594 100.998 98.925 96.8508 100.89 94.1379C103.978 89.879 108.314 89.8262 108.314 89.8262C108.314 89.8262 107.076 94.3753 106.499 96.2097V96.2077ZM151.233 84.0434C152.294 79.3238 153.605 77.2216 155.081 77.2216C156.729 77.2216 155.512 80.3363 154.509 82.7569C152.644 87.2635 150.078 89.386 150.078 89.386C150.078 89.386 150.575 86.9734 151.233 84.0434ZM155.081 96.5689C154.04 99.7199 151.832 101.816 150.148 101.248C148.463 100.68 147.944 97.6645 148.987 94.5114C150.029 91.3601 152.237 89.2682 153.92 89.8384C155.602 90.4066 156.122 93.4198 155.081 96.5689ZM168.063 92.3158C168.837 90.8183 170.367 89.6456 171.49 89.7999C172.252 89.9033 172.749 90.3314 172.811 91.4455C172.878 92.6182 172.09 93.9798 170.925 94.9213C169.238 96.2827 167.221 97.1796 167.221 97.1796C167.221 97.1796 166.711 94.9314 168.063 92.3179V92.3158Z" fill="white"/>
<path d="M122.981 80.8969C121.848 80.5369 120.875 80.7472 120.408 81.093C119.85 81.5056 119.527 82.2194 119.475 82.9879C119.377 84.4702 120.444 85.7503 121.858 85.8453C122.919 85.9181 124.09 85.273 124.504 84.3165C124.967 83.2447 125.049 81.5521 122.979 80.8969H122.981Z" fill="white"/>
<path d="M120.568 79.2203L120.542 74.1364C120.542 73.9625 120.765 73.8856 120.867 74.0251L122.835 76.6763C122.891 76.7512 122.993 76.7673 123.071 76.7148L125.113 75.3052C125.228 75.2264 125.38 75.3133 125.376 75.4569L125.304 77.6126C125.3 77.7299 125.402 77.8169 125.51 77.7906L129.015 76.9392C129.171 76.9008 129.279 77.1071 129.167 77.2304L125.821 80.9008C125.753 80.9757 125.645 80.9797 125.579 80.9109C125.298 80.6278 124.536 79.9423 123.428 79.6268C122.293 79.3053 121.194 79.3599 120.761 79.4003C120.657 79.4104 120.57 79.3316 120.568 79.2244V79.2203Z" fill="white"/>
<path d="M94.365 110.847C85.999 108.321 83.219 98.4783 83.219 98.4783C83.219 98.4783 83.9671 98.3247 84.262 98.2761C91.9361 97.0142 98.6855 90.0516 98.0356 81.2204C97.7087 76.7694 95.7548 73.3295 91.8536 71.101C89.1679 69.5681 86.4382 69.1373 83.6161 69.1373C74.4577 69.1373 66.2079 77.5034 66.2079 77.5034C66.2079 77.5034 63.6104 74.3972 62.4511 73.4549C61.5545 72.7268 60.4734 72.4114 59.296 72.6257C57.6734 72.923 56.4859 74.1263 56.0186 74.6743C55.8922 74.8219 55.9123 75.0423 56.0607 75.1657C56.7728 75.7582 58.7545 77.2365 59.6691 78.1566C60.7923 79.2891 62.776 81.5662 62.776 81.5662C62.776 81.5662 59.9178 85.5763 58.7344 87.7887C56.6524 91.6815 55.3326 95.815 55.5172 100.319C55.6415 103.342 57.9863 111.113 65.4417 111.113C75.4505 111.113 77.0633 100.252 75.4405 94.4904C74.0264 89.4692 72.139 85.1557 69.3269 80.7431C71.1341 78.5995 74.6943 75.7299 77.8796 74.6136C80.2524 73.7804 82.6774 73.3032 85.1987 73.6733C90.6925 74.4781 92.7544 79.0788 92.8547 82.6723C93.0553 89.9201 86.5285 95.7281 79.3719 94.6987C77.7111 94.4601 76.9186 95.2144 77.0671 96.8949C77.0751 96.998 77.0933 97.1012 77.1134 97.2043C77.4764 99.0385 78.1584 100.759 78.9888 102.416C81.3355 107.105 84.4806 111.128 88.8873 114.015C91.6713 115.839 94.7261 117.087 98.0998 116.592C102.771 115.904 103.979 111.947 104.424 109.864C104.514 109.441 104.065 109.109 103.692 109.324C102.015 110.292 98.2621 112.021 94.3729 110.847H94.365ZM70.8332 97.6068C71.0258 99.3297 70.8934 101.041 70.1172 102.628C69.0802 104.753 67.4234 105.995 65.0185 105.938C62.6617 105.882 61.0731 104.588 60.1344 102.474C59.2499 100.484 59.3141 98.4015 59.7333 96.3206C60.4032 93.0041 61.9035 90.0475 63.6887 87.2224C64.2001 86.4135 64.7457 85.6269 65.3374 84.7371C67.979 88.7533 70.2937 92.7978 70.8312 97.6068H70.8332Z" fill="white"/>
<path d="M62.1803 95.7766C60.8846 97.5501 60.8124 100.755 62.1462 102.529C63.121 103.827 65.2872 104.418 66.3964 103.981C64.7978 103.449 63.7669 102.258 63.0568 100.867C62.3468 99.4753 61.7611 97.7746 62.1803 95.7745V95.7766Z" fill="white"/>
</g>
<defs>
<clipPath id="clip0_278_2449">
<rect width="139" height="54" fill="white" transform="translate(55.5 66)"/>
</clipPath>
</defs>
</svg>