<svg width="248" height="186" viewBox="0 0 248 186" fill="none" xmlns="http://www.w3.org/2000/svg">
<rect y="0.503906" width="248" height="185.461" rx="7.47754" fill="#95C2FE"/>
<rect x="0.373877" y="0.877783" width="247.252" height="184.713" rx="7.10366" stroke="#02D0CE" stroke-opacity="0.1" stroke-width="0.747754"/>
<g clip-path="url(#clip0_303_631)">
<mask id="mask0_303_631" style="mask-type:alpha" maskUnits="userSpaceOnUse" x="36" y="92" width="34" height="16">
<path d="M69.9227 92.5156H36.5854V107.332H69.9227V92.5156Z" fill="#C4C4C4"/>
</mask>
<g mask="url(#mask0_303_631)">
<path d="M58.6081 106.715H43.0872C43.0774 106.715 43.0676 106.715 43.0579 106.715L47.2896 99.3055H54.414C54.8016 99.3055 55.1599 99.0951 55.3541 98.7526C55.863 97.8525 56.9025 96.0173 57.7764 94.4723C58.2371 93.6589 58.6518 92.9259 58.9205 92.452C59.0168 92.281 59.0658 92.0896 59.0658 91.8989C59.0658 91.7076 59.0168 91.5162 58.9205 91.3452C58.6518 90.8713 58.2371 90.1382 57.7764 89.3248C56.9025 87.7798 55.863 85.9447 55.3541 85.0454C55.1599 84.7028 54.8016 84.4916 54.414 84.4916H47.2896L43.0579 77.0828C43.0676 77.082 43.0774 77.082 43.0872 77.082H58.6081C58.9958 77.082 59.354 77.2932 59.5482 77.6358L67.3086 91.3452C67.405 91.5162 67.4539 91.7076 67.4539 91.8989C67.4539 92.0896 67.405 92.281 67.3086 92.452L59.5482 106.162C59.354 106.504 58.9958 106.715 58.6081 106.715Z" fill="#0B0E0D"/>
<path d="M41.6783 91.8979C41.6798 91.7049 41.6316 91.5113 41.533 91.3373C40.7554 89.964 38.7427 86.4077 37.9651 85.0344C37.7717 84.6918 37.7717 84.2703 37.9651 83.9285L41.5556 77.5853C41.6662 77.4189 41.7972 77.3081 41.9244 77.2344L49.8843 91.3373C49.983 91.512 50.0311 91.7065 50.0296 91.9017C50.0311 92.0961 49.983 92.2905 49.8843 92.4652L41.9244 106.568C41.7972 106.495 41.6662 106.384 41.5556 106.217L37.9651 99.8741C37.7717 99.5324 37.7717 99.1107 37.9651 98.7689C38.7427 97.3948 40.7554 93.8386 41.533 92.4652C41.6316 92.2921 41.6798 92.0984 41.6783 91.9047V91.9017V91.8979Z" fill="#0B0E0D"/>
</g>
<mask id="mask1_303_631" style="mask-type:alpha" maskUnits="userSpaceOnUse" x="36" y="77" width="34" height="16">
<path d="M69.9227 77.6992H36.5854V92.5158H69.9227V77.6992Z" fill="#0084FF"/>
</mask>
<g mask="url(#mask1_303_631)">
<path d="M58.6081 107.949H43.0872C43.0774 107.949 43.0676 107.949 43.0579 107.949L47.2896 100.54H54.414C54.8016 100.54 55.1599 100.329 55.3541 99.987C55.863 99.0869 56.9025 97.2517 57.7764 95.7067C58.2371 94.8933 58.6518 94.1602 58.9205 93.6863C59.0168 93.5153 59.0658 93.324 59.0658 93.1333C59.0658 92.9419 59.0168 92.7506 58.9205 92.5796C58.6518 92.1057 58.2371 91.3726 57.7764 90.5592C56.9025 89.0142 55.863 87.1791 55.3541 86.2797C55.1599 85.9372 54.8016 85.726 54.414 85.726H47.2896L43.0579 78.3172C43.0676 78.3164 43.0774 78.3164 43.0872 78.3164H58.6081C58.9958 78.3164 59.354 78.5276 59.5482 78.8701L67.3086 92.5796C67.405 92.7506 67.4539 92.9419 67.4539 93.1333C67.4539 93.324 67.405 93.5153 67.3086 93.6863L59.5482 107.396C59.354 107.738 58.9958 107.949 58.6081 107.949Z" fill="#0B0E0D"/>
<path d="M41.6783 93.1323C41.6798 92.9393 41.6316 92.7457 41.533 92.5717C40.7554 91.1983 38.7427 87.6421 37.9651 86.2688C37.7717 85.9262 37.7717 85.5046 37.9651 85.1628L41.5556 78.8197C41.6662 78.6533 41.7972 78.5424 41.9244 78.4688L49.8843 92.5717C49.983 92.7464 50.0311 92.9409 50.0296 93.1361C50.0311 93.3304 49.983 93.5249 49.8843 93.6996L41.9244 107.803C41.7972 107.729 41.6662 107.618 41.5556 107.452L37.9651 101.108C37.7717 100.767 37.7717 100.345 37.9651 100.003C38.7427 98.6292 40.7554 95.073 41.533 93.6996C41.6316 93.5265 41.6798 93.3328 41.6783 93.139V93.1361V93.1323Z" fill="#0B0E0D"/>
</g>
</g>
<g clip-path="url(#clip1_303_631)">
<path d="M81.03 84.2441H89.1398C91.0182 84.2441 92.6842 84.5981 94.1379 85.306C95.5916 86.0139 96.7187 87.0181 97.519 88.3187C98.3193 89.6193 98.7195 91.1421 98.7195 92.8871C98.7195 94.6322 98.3193 96.1549 97.519 97.4556C96.7187 98.7561 95.5916 99.7603 94.1379 100.468C92.6842 101.176 91.0182 101.53 89.1398 101.53H81.03V84.2441ZM88.9438 97.6284C90.4138 97.6284 91.5898 97.2086 92.4719 96.369C93.3702 95.5294 93.8194 94.3688 93.8194 92.8871C93.8194 91.4055 93.3702 90.2448 92.4719 89.4052C91.5898 88.5656 90.4138 88.1458 88.9438 88.1458H85.8812V97.6284H88.9438Z" fill="#0B0E0D"/>
<path d="M116.139 101.53L116.09 92.3685L111.68 99.8262H109.524L105.138 92.6155V101.53H100.655V84.2441H104.648L110.675 94.2206L116.556 84.2441H120.549L120.598 101.53H116.139Z" fill="#0B0E0D"/>
<path d="M135.522 98.1717H128.27L126.922 101.53H121.973L129.544 84.2441H134.321L141.916 101.53H136.869L135.522 98.1717ZM134.101 94.5663L131.896 89.0348L129.691 94.5663H134.101Z" fill="#0B0E0D"/>
<path d="M150.789 96.937H148.143V101.53H143.292V84.2441H151.132C152.684 84.2441 154.031 84.5075 155.174 85.0344C156.318 85.5447 157.2 86.2855 157.821 87.2568C158.441 88.2117 158.752 89.3394 158.752 90.6399C158.752 91.8911 158.458 92.9859 157.87 93.9243C157.298 94.8462 156.473 95.5706 155.395 96.0974L159.095 101.53H153.901L150.789 96.937ZM153.851 90.6399C153.851 89.8333 153.598 89.2077 153.092 88.7632C152.586 88.3187 151.834 88.0964 150.838 88.0964H148.143V93.1588H150.838C151.834 93.1588 152.586 92.9447 153.092 92.5167C153.598 92.0722 153.851 91.4466 153.851 90.6399Z" fill="#0B0E0D"/>
<path d="M168.043 95.2578L166.23 97.2086V101.53H161.428V84.2441H166.23V91.4302L172.87 84.2441H178.211L171.204 91.8994L178.578 101.53H172.943L168.043 95.2578Z" fill="#0B0E0D"/>
<path d="M194.238 97.7519V101.53H180.469V84.2441H193.919V88.0224H185.271V90.9363H192.89V94.591H185.271V97.7519H194.238Z" fill="#0B0E0D"/>
<path d="M201.198 88.1211H195.93V84.2441H211.292V88.1211H206.05V101.53H201.198V88.1211Z" fill="#0B0E0D"/>
</g>
<defs>
<clipPath id="clip0_303_631">
<rect width="33.3372" height="29.6331" fill="white" transform="translate(36.5854 77.6992)"/>
</clipPath>
<clipPath id="clip1_303_631">
<rect width="132.114" height="18.5207" fill="white" transform="translate(79.8003 83.2559)"/>
</clipPath>
</defs>
</svg>
